<svg width="567" height="469" viewBox="0 0 567 469" fill="none" xmlns="http://www.w3.org/2000/svg">
<rect x="15" width="538" height="469" fill="#999DD9"/>
<path fill-rule="evenodd" clip-rule="evenodd" d="M206.045 129.618C205.655 135.999 205.264 142.38 204.873 148.761C207.386 148.038 223.373 143.337 222.386 148.103C221.677 151.522 217.182 155.22 214.892 157.6C212.785 159.792 210.615 161.926 208.389 163.998C212.479 162.433 216.604 160.951 220.758 159.565C223.901 158.516 227.068 157.492 230.289 156.706C231.484 156.414 234.713 155.222 235.842 156.035C238.81 158.169 222.706 173.892 220.5 176.109C223.62 174.659 226.814 173.342 230.062 172.212C232.407 171.396 239.653 168.278 241.729 170.941C243.95 173.789 238.447 180.331 236.92 182.406C234.733 185.378 232.364 188.229 229.877 190.955C240.212 200.232 252.357 208.49 265.282 213.622C274.759 217.385 284.068 218.343 294.069 216.278C304.342 214.156 314.195 210.087 323.561 205.435C329.062 202.702 334.49 199.746 339.661 196.424C337.529 193.833 335.459 191.187 333.448 188.501C330.578 184.666 327.051 180.476 325.414 175.91C323.812 171.442 329.821 172.314 332.704 172.557C336.877 172.909 341.04 173.654 345.13 174.546C342.238 172.536 339.398 170.445 336.616 168.286C332.989 165.473 328.151 162.292 325.777 158.245C323.69 154.685 328.272 155.584 330.39 156.051C335.441 157.163 340.355 159.058 345.173 160.906C348.701 162.26 352.207 163.677 355.679 165.17C353.524 163.298 351.441 161.335 349.439 159.301C346.748 156.567 343.119 153.227 341.913 149.462C339.456 141.793 355.983 147.578 358.805 148.761C358.283 140.817 357.763 132.874 357.242 124.93C335.358 130.749 313.474 136.569 291.59 142.39C289.225 143.019 286.265 144.389 283.799 144.462C281.565 144.528 278.866 143.523 276.688 143.107L237.087 135.545C226.739 133.569 216.392 131.593 206.045 129.618Z" fill="#FF5678"/>
<path fill-rule="evenodd" clip-rule="evenodd" d="M441.25 402.848C438.887 404.199 436.12 405.242 433.495 405.942C431.954 406.354 429.407 407.624 428.053 406.46C427.402 405.901 427.253 404.632 426.87 403.896C426.263 402.732 425.4 401.726 424.591 400.696C422.632 398.202 420.593 395.796 418.459 393.449C417.448 392.337 415.602 389.741 413.82 389.912C411.6 390.125 411.653 393.196 412.21 394.766C413.981 399.761 419.344 404.116 422.847 407.88C421.957 409.25 417.065 409.087 415.707 408.767C413.633 408.277 413.423 406.801 412.477 405.113C410.263 401.168 405.772 398.961 402.08 396.641C400.734 395.795 397.873 393.451 396.119 394.041C394.457 394.6 394.529 396.722 395.058 398.108C395.858 400.202 398.133 401.655 399.816 402.979C402.059 404.743 404.111 406.663 405.981 408.823C403.286 409.043 400.601 409.423 397.913 409.644C394.662 409.912 391.952 408.129 388.96 407.119C386.179 406.18 383.408 405.386 380.674 404.304C377.604 403.089 374.388 402.666 371.291 401.6C359.138 397.417 347.23 392.155 335.519 386.852C329.938 384.324 324.472 381.796 318.658 379.818C314.42 378.376 307.761 375.503 306.748 370.458C306.213 367.793 308.161 364.927 308.448 362.263C308.785 359.13 308.52 355.683 307.565 352.677C306.723 350.029 305.329 347.577 304.229 345.034C302.949 342.071 304.095 342.119 306.583 341.782C309.561 341.378 313.036 339.703 315.835 338.612C319.059 337.355 322.256 335.598 325.209 333.791C327.88 332.158 330.204 330.052 332.33 327.764C334.493 325.438 335.894 322.681 337.985 320.297C345.704 329.784 353.04 339.415 361.241 348.491C365.112 352.776 369.321 356.318 374.091 359.575C376.083 360.937 378.059 362.49 380.229 363.565C382.943 364.912 385.976 365.747 388.765 366.975C399.46 371.684 409.666 376.833 419.643 382.909C424.47 385.848 428.521 389.218 432.771 392.906C434.094 394.054 444.93 400.743 441.25 402.848ZM315.798 325.131C314.069 325.913 312.422 326.929 310.578 327.431C311.101 324.253 314.069 319.458 317.874 319.986C319.328 320.187 320.424 321.315 319.786 322.871C319.205 324.285 317.029 324.574 315.798 325.131ZM195.502 238.917C193.543 239.998 191.717 240.628 190.568 238.307C191.419 238.137 195.285 237.622 195.502 238.917ZM192.24 232.357C190.726 231.898 191.937 231.416 192.458 230.862C192.864 230.431 194.207 228.919 194.678 228.669C196.755 227.57 198.36 231.661 199.353 232.989C197.002 232.78 194.529 233.051 192.24 232.357ZM208.429 246.522C205.559 247.008 205.878 243.42 205.963 241.602C206.569 242.34 210.667 246.144 208.429 246.522ZM217.939 240.324C214.441 240.914 212.129 234.873 212.756 232.23C213.308 229.902 216.02 228.603 218.178 228.259C220.27 227.926 223.183 228.381 223.805 230.792C224.354 232.923 220.271 239.931 217.939 240.324ZM300.76 331.524C298.245 332.296 295.782 332.393 293.255 333.151C290.387 334.012 287.734 333.935 284.861 334.521C283.692 334.758 280.539 336.46 279.399 336.08C278.269 335.703 276.635 332.201 275.985 331.29C281.069 329.178 285.405 326.452 288.756 322.002C291.42 318.464 294.277 313.162 292.601 308.596C290.71 303.447 284.194 302.329 279.85 304.48C277.794 305.496 275.757 306.761 274.063 308.311C272.125 310.083 271.363 312.017 270.108 314.203C268.839 316.413 267.948 315.184 266.68 313.307C265.596 311.702 265.737 310.082 264.383 308.499C263.691 307.692 262.621 306.912 262.261 305.869C262.032 305.208 262.514 304.035 262.08 303.514C261.47 302.783 260.729 303.642 260.218 302.989C259.847 302.515 259.968 301.433 259.584 300.839C259.252 300.502 258.882 300.214 258.474 299.975C257.977 299.73 257.887 299.423 258.202 299.055C257.807 298.325 258.187 298.079 257.343 297.191C256.026 295.807 254.825 294.481 253.888 292.848C253.46 292.1 253.502 290.992 252.97 290.345C252.24 289.456 251.023 289.59 250.395 288.49C249.836 287.51 250.21 285.796 249.288 284.907C248.801 284.768 248.315 284.632 247.828 284.497C247.462 284.142 247.248 283.71 247.188 283.203C246.675 282.414 246.573 281.488 245.927 280.656C244.689 279.063 243.024 277.592 241.93 275.912C240.781 274.147 241.39 273.85 243.387 273.219C245.188 272.648 246.832 272.119 248.501 271.148C256.219 266.66 263.535 254.754 251.286 251.116C246.74 249.767 243.006 246.137 237.966 247.563C235.781 248.182 233.708 249.499 232.078 251.062C230.952 252.142 229.909 255.031 228.526 255.585C226.04 256.58 227.091 254.094 226.385 252.952C226.048 252.407 224.692 251.779 224.189 251.282C223.599 250.701 223.029 249.967 222.62 249.247C221.86 247.912 221.394 247.168 220.298 246.08C219.884 245.67 217.821 243.549 219.682 243.826C218.928 241.53 220.028 241.185 221.548 239.508C223.334 237.538 225.177 234.801 225.187 232.041C225.208 226.742 218.925 224.368 214.98 227.514C214.177 228.154 209.429 234.332 210.4 230.392C210.924 228.267 215.775 222.72 218.023 224.155C215.503 220.484 209.714 229.397 208.363 231.221C207.213 229.104 207.131 227.447 205.227 225.808C203.678 228.293 204.496 225.578 204.154 225.026C203.416 223.834 203.822 225.197 203.421 224.774C202.923 224.247 202.138 223.831 201.608 223.133C200.699 224.364 201.062 223.039 200.784 222.579C200.133 221.503 200.385 220.879 199.269 219.944C198.458 219.263 196.859 218.207 195.766 218.11C194.506 217.999 194.157 218.481 192.874 218.124C191.241 217.67 189.186 216.973 189.977 219.703C190.551 221.686 192.884 222.813 193.395 224.84C193.91 226.88 191.891 228.936 190.912 230.608C189.655 232.754 188.627 232.578 186.349 233.062C184.893 233.371 182.95 234.033 184.198 235.798C185.09 237.059 187.18 236.793 188.357 237.54C190.007 238.587 189.984 241.17 192.09 241.619C194.41 242.113 195.74 239.532 197.696 238.908C199.087 238.465 203.395 238.514 204.49 239.558C205.982 240.98 204.693 243.698 205.069 245.464C205.627 248.084 207.401 248.244 209.644 248.328C212.405 248.431 213.376 251.081 214.861 253.183C218.34 258.106 221.363 263.355 224.926 268.212C226.503 270.363 228.81 272.277 230.102 274.611C231.697 277.494 229.482 279.156 227.572 281.226C225.075 283.93 223.211 287.006 221.046 289.962C219.121 292.588 216.73 291.934 213.655 291.934C214.341 290.522 215.165 289.642 216.851 289.813C215.088 287.662 213.678 290.123 212.535 291.486C210.88 293.457 208.724 293.933 206.599 295.229C205.847 295.687 201.752 298.66 202.996 299.675C203.137 299.79 209.916 295.334 210.688 294.925C210.688 296.57 210.328 298.279 210.558 299.915C210.728 301.115 211.572 302.366 211.392 303.614C211.051 305.968 208.006 307.823 206.699 309.657C205.715 311.038 205.953 312.127 205.452 313.609C204.996 314.961 205.235 314.552 204.098 314.97C201.78 315.82 197.881 315.362 195.783 314.152C194.481 313.402 193.482 312.215 192.424 311.17C191.627 310.381 189.623 309.035 189.401 307.932C189.021 306.033 192.794 302.504 193.54 300.546C195.649 295.017 192.033 290.72 186.406 290.406C188.14 289.069 190.29 290.077 192.118 290.587C188.993 286.259 183.656 289.82 181.006 292.761C179.194 288.186 178.321 283.359 177.215 278.587C176.461 275.338 173.592 269.539 174.872 266.194C175.49 264.577 177.237 263.675 178.445 262.554C179.817 261.279 180.992 259.756 181.996 258.178C184.36 254.463 185.725 249.772 182.47 246.111C183.459 245.948 184.448 245.786 185.437 245.623C183.829 244.112 181.291 244.848 179.203 244.4C177.878 244.116 174.067 244.3 173.183 243.551C172.119 242.65 172.801 238.505 172.839 237.279C172.926 234.412 173.166 231.655 173.483 228.806C173.783 226.114 173.722 223.206 174.279 220.561C174.731 218.415 176.175 217.761 177.841 216.496C181.823 213.472 185.068 209.793 183.708 204.582C184.19 204.505 184.672 204.429 185.154 204.353C183.596 203.227 181.579 203.636 179.846 203.041C181.438 198.564 184.958 190.694 190.673 190.27C190.87 192.271 190.735 194.651 192.086 196.308C193.624 198.194 196.325 198.384 198.408 197.387C200.299 196.48 202.074 194.56 202.945 192.663C203.535 191.379 203.428 189.207 204.463 188.189C205.851 186.824 215.42 187.647 215.127 189.952C214.954 191.307 212.395 193.584 211.68 194.785C210.372 196.982 209.324 199.359 208.843 201.883C208.114 205.715 208.536 210.775 212.431 212.79C216.86 215.082 222.257 212.168 225.889 209.65C227.884 208.268 229.816 206.742 231.638 205.14C232.609 204.288 233.584 203.409 234.439 202.439C235.071 201.723 235.575 200.569 236.353 200.033C238.189 198.767 239.989 200.915 241.544 202C244.075 203.768 246.594 205.447 249.311 206.918C254.825 209.903 259.867 213.858 264.743 217.784C269.646 221.733 274.703 225.796 278.675 230.717C276.269 232.196 276.698 232.58 275.628 235.219C274.868 237.091 273.822 238.685 273.701 240.765C273.492 244.356 275.799 247.416 279.299 248.21C281.257 248.655 283.122 248.299 284.935 247.499C286.345 246.877 287.75 245.347 289.222 244.967C291.96 244.261 294.151 249.43 295.685 251.25C302.5 259.336 309.704 267.102 316.121 275.518C316.832 276.45 318.943 278.271 319.115 279.505C319.361 281.277 316.572 282.966 315.415 283.982C314.807 284.515 308.364 290.572 310.527 291.535C311.144 291.809 312.949 288.093 313.401 287.775C315.09 286.585 313.812 288.918 313.712 290.097C313.46 293.027 315.474 294.624 318.305 294.253C321.327 293.857 324.016 291.473 325.886 289.222C328.229 291.934 331.892 296.033 332.569 299.656C333.002 301.971 330.998 307.636 334.739 308.108C335.31 308.18 337.376 306.648 337.761 307.517C338.083 308.244 335.849 309.485 335.527 309.725C334.15 310.752 333.319 311.852 332.207 313.096C330.903 314.556 329.12 315.787 327.652 317.186C326.105 318.66 323.046 322.663 321.006 320.729C319.98 319.757 320.25 318.486 318.607 317.915C317.111 317.396 315.216 318.055 313.825 318.631C312.26 319.279 307.106 321.646 306.534 323.594C305.745 326.281 310.005 323.05 310.763 322.578C309.899 324.77 309.421 327.943 307.221 329.221C305.394 330.283 302.765 330.908 300.76 331.524ZM271.541 314.948C273.004 310.249 281.631 301.871 287.083 304.491C280.728 305.822 275.686 310.168 271.541 314.948ZM274.767 328.405C272.641 327.22 272.755 323.78 272.013 321.768C271.587 320.613 270.735 319.77 270.986 318.488C271.279 316.986 273.196 315.316 274.216 314.233C277.428 310.822 283.08 306.162 288.25 306.944C294.83 307.939 290.369 316.768 288.128 319.808C286.219 322.4 278.86 330.685 274.767 328.405ZM259.417 322.658C252.301 322.183 245.21 321.547 238.191 320.242C235.702 319.779 233.618 319.847 235.041 316.988C235.512 316.044 238.346 310.129 238.986 310.299C239.366 310.4 239.279 314.465 239.39 314.931C239.893 317.024 241.304 318.974 243.683 318.841C247.574 318.624 250.083 313.595 252.132 310.895C253.774 313.101 254.962 315.552 256.612 317.721C257.401 318.758 260.147 321.17 259.417 322.658ZM217.699 294.742C216.505 297.48 214.104 300.084 212.435 302.564C211.49 300.567 210.826 295.982 213.066 294.505C213.913 293.946 218.454 293.011 217.699 294.742ZM242.378 302.895C242.707 301.841 243.071 300.795 243.477 299.769C244.173 301.959 244.529 302.024 242.378 302.895ZM248.47 305.138C249.333 306.601 250.773 308.04 250.547 309.877C250.376 311.269 249.117 312.696 248.217 313.666C246.729 315.271 243.432 318.352 241.276 316.221C239.475 314.44 240.102 309.545 240.94 307.542C242.136 304.68 246.411 301.652 248.47 305.138ZM244.244 302.139C244.739 301.942 243.699 298.749 244.664 298.431C245.506 300.349 246.299 300.869 244.244 302.139ZM230.647 259.162C230.326 257.983 229.591 258.033 229.856 256.576C230.029 255.621 230.788 254.601 231.363 253.844C232.51 252.336 234.022 251.093 235.658 250.151C239.111 248.165 243.854 247.34 246.945 250.45C244.055 250.906 235.194 253.757 235.138 257.708C238.352 257.09 240.88 253.863 244.103 252.846C246.749 252.011 249.619 252.07 252.251 252.951C259.457 255.363 256.461 261.587 252.394 265.63C249.98 268.031 247.085 269.823 243.92 271.059C242.456 271.631 241.557 271.695 240.117 271.407C239.847 271.353 239.532 270.853 239.209 270.746C238.406 270.48 238.639 271.381 237.977 270.976C237.4 270.624 236.168 268.346 235.776 267.694C235.151 266.657 234.859 265.648 234.092 264.7C233.324 263.753 232.95 262.482 232.239 261.625C231.898 261.212 230.964 261.229 230.712 260.826C230.336 260.221 230.815 259.781 230.647 259.162ZM219.581 305.58C221.218 302.737 224.02 300.322 226.188 297.837C226.321 301.922 223.39 304.72 219.581 305.58ZM221.794 306.894C225.176 305.705 227.039 302.859 227.384 299.409C227.822 295.039 230.567 292.746 232.22 288.82C232.854 287.315 233.593 282.364 236.05 283.781C236.893 284.267 237.392 286.095 237.832 286.921C238.894 288.919 240.102 290.856 241.229 292.818C242.147 294.415 243.522 296.021 243.117 297.944C242.764 299.62 241.628 301.406 240.963 302.987C239.392 306.721 237.329 310.16 235.604 313.812C234.908 315.286 234.085 318.774 231.961 318.756C230.28 318.741 230.468 316.904 229.361 316.275C227.964 315.48 226.375 316.992 225.228 317.619C226.549 315.389 228.86 314.126 231.457 314.546C228.347 311.451 226.246 315.627 223.577 316.557C221.048 317.439 216.562 313.282 214.433 312.104C215.247 310.726 215.983 309.04 217.384 308.133C218.713 307.272 220.343 307.404 221.794 306.894ZM194.298 335.179C194.668 333.397 195.714 332.343 196.378 330.725C197.147 332.687 195.346 333.845 194.298 335.179ZM248.031 346.115C247.849 352.116 247.359 358.102 247.182 364.105C247.1 366.874 246.61 369.515 246.284 372.251C246.009 374.565 246.149 376.838 244.692 378.815C242.393 381.932 237.926 382.828 234.457 383.983C231.91 384.83 229.334 385.6 226.818 386.542C224.555 387.389 222.731 388.674 220.578 389.681C218.653 390.583 216.575 391.117 214.659 392.078C212.677 393.071 211.11 394.282 209.074 395.166C206.637 396.225 204.628 398.109 202.461 399.604C200.552 400.921 198.534 401.937 196.892 403.592C195.353 405.146 193.404 405.827 191.66 407.206C189.815 408.665 187.885 409.614 185.847 410.758C181.673 413.102 176.041 417.106 171.017 414.829C172.454 412.995 175.394 411.232 175.618 408.705C175.909 405.413 173.042 406.625 171.382 407.676C168.868 409.268 167.477 411.19 165.563 413.312C163.325 415.792 160.499 414.123 157.761 413.426C159.633 411.741 161.49 410.042 163.359 408.354C164.936 406.93 167.35 405.39 168.311 403.421C168.997 402.013 168.964 400.083 167.307 399.352C165.453 398.535 163.357 400.258 161.984 401.285C158.339 404.01 155.939 407.466 153.546 411.259C152.273 413.276 151.686 413.121 149.344 412.718C146.863 412.291 144.381 411.835 141.878 411.536C145.193 408.133 148.897 404.448 151.515 400.467C152.363 399.177 153.47 395.778 150.886 395.465C149.821 395.336 147.701 397.512 146.879 398.099C143.29 400.663 139.839 403.897 137.46 407.641C136.674 408.877 136.428 410.251 134.907 410.354C132.918 410.488 129.224 408.592 127.306 408.006C130.972 403.387 134.612 398.735 138.895 394.663C142.83 390.92 146.755 388.201 151.357 385.331C156.29 382.253 160.884 378.711 165.413 375.076C169.748 371.596 174.276 368.314 178.266 364.429C186.237 356.668 193.336 347.743 199.215 338.305C200.59 336.097 201.885 333.831 203.005 331.481C204.056 329.275 204.54 326.636 205.959 324.628C206.45 323.935 207.14 323.42 207.577 322.696C207.989 322.015 207.85 321.191 208.478 320.588C209.932 319.193 212.578 320.034 213.937 321.012C216.122 322.583 217.889 324.492 220.29 325.807C222.706 327.131 225.319 328.093 227.993 328.743C234.243 330.262 240.44 331.508 246.807 332.431C246.152 334.86 247.761 335.242 248.294 337.428C248.942 340.079 248.112 343.414 248.031 346.115ZM187.846 305.617C186.429 303.512 185.164 301.312 183.771 299.194C182.923 297.904 181.871 296.519 182.597 294.941C183.818 292.282 188.126 291.808 190.464 292.968C195.779 295.604 190.842 303.141 187.846 305.617ZM173.778 257.49C173.288 253.377 174.862 250.459 178.585 248.302C181.238 246.765 183.375 248.866 183.013 251.668C182.461 255.937 177.897 260.685 174.414 262.912C174.186 261.107 173.993 259.297 173.778 257.49ZM173.21 245.722C174.308 244.851 177.249 245.962 178.522 246.038C176.772 247.566 175.022 249.094 173.272 250.622C173.157 249.574 172.197 246.526 173.21 245.722ZM179.115 206.001C187.97 204.851 177.777 214.348 175.21 215.836C175.628 213.816 176.654 206.322 179.115 206.001ZM202.689 189.374C201.5 194.241 192.256 199.552 192.159 191.578C192.124 188.607 193.793 188.848 196.231 188.562C197.621 188.4 203.368 186.591 202.689 189.374ZM170.76 196.912C169.722 199.634 168.89 202.427 167.873 205.152C167.422 206.358 166.892 207.188 166.053 208.144C165.35 208.943 164.514 209.145 164.542 210.409C165.422 210.239 166.111 209.715 166.822 209.209C166.65 211.714 165.764 214.41 165.335 216.907C164.821 219.902 164.393 222.897 164.234 225.934C163.89 232.536 163.887 239.115 164.032 245.722C164.106 249.089 164.139 252.457 164.321 255.819C164.412 257.492 164.514 259.172 164.721 260.835C164.805 261.506 165.293 262.935 164.991 263.564C163.809 266.033 158.57 259.25 156.294 260.246C156.622 258.366 155.867 258.778 154.606 257.853C153.995 257.405 153.598 256.643 152.961 256.244C152.768 256.037 152.556 255.852 152.325 255.69C152.062 255.331 151.784 255.37 151.492 255.804C148.929 254.273 148.266 251.009 146.89 248.814C146.182 247.685 145.499 247.509 145.378 245.948C145.273 244.588 145.478 243.202 145.423 241.836C145.36 240.295 145.27 238.597 144.838 237.105C144.336 235.373 143.645 235.514 142.3 234.591C142.715 234.41 142.988 234.106 143.12 233.678C142.691 233.755 141.385 234.287 141.061 233.905C140.424 233.153 141.928 233.053 142.324 232.754C140.636 232.005 141 231.39 141.609 230.018C141.781 229.629 141.946 229.049 142.092 228.722C142.412 228.006 142.596 228.46 142.702 227.571C142.803 226.724 142.051 225.058 141.83 224.156C141.459 222.641 141.253 221.333 141.587 219.756C141.857 218.478 142.584 217.322 142.634 216.008C142.649 215.64 142.086 215.517 142.079 215.161C142.068 214.641 142.554 214.412 142.68 213.931C143.003 212.7 142.857 211.399 143.409 210.231C143.906 209.182 144.909 207.825 145.62 206.909C146.112 206.275 147.319 205.56 147.451 204.723C147.539 204.168 146.675 204.232 146.713 203.814C146.765 203.248 147.24 203.064 147.371 202.644C147.73 201.49 147.821 200.38 148.749 199.496C149.919 198.383 150.427 198.849 150.475 197.013C150.499 196.117 149.782 195.979 150.166 194.946C150.375 194.385 150.99 194.054 151.384 193.656C152.554 192.478 153.342 191.43 154.175 189.974C154.911 188.687 156.086 187.938 156.84 186.826C157.823 185.378 156.354 184.659 158.348 184.25C158.064 183.351 157.763 182.624 158.509 181.863C158.979 181.382 160.173 181.676 160.589 181.121C161.066 180.483 160.361 178.972 161.08 178.558C161.665 178.222 162.54 179.258 163.459 178.745C164.16 178.354 165.217 176.195 164.991 175.401C166.802 176.419 166.351 175.718 167.217 174.412C167.412 174.119 168 174.054 168.168 173.758C168.502 173.168 168.426 172.566 168.908 172.086C169.711 171.286 171.025 171.491 171.908 170.92C172.639 170.449 172.6 169.94 173.183 169.495C173.68 169.115 174.498 169.042 174.982 168.648C175.93 167.877 175.939 167.062 177.126 166.397C178.53 165.61 179.775 164.941 181.052 163.897C181.885 163.218 182.676 162.012 183.65 161.564C184.998 160.943 186.048 160.9 187.366 160.014C188.319 159.374 189.22 158.319 190.156 157.779C190.861 157.373 191.356 157.461 192.246 157.209C193.846 156.755 194.236 155.248 195.542 154.634C196.438 154.212 197.744 154.598 198.728 154.377C201.791 153.69 204.817 152.207 207.891 151.386C211.643 150.384 215.422 149.507 219.203 148.621C215.729 153.327 211.303 157.574 206.815 161.312C205.342 162.539 197.269 168.133 201.62 170.522C203.367 171.481 207.162 168.384 208.572 167.627C211.412 166.102 214.353 164.882 217.328 163.649C222.137 161.655 228.401 158.109 233.746 158.394C230.492 162.384 226.431 165.587 222.709 169.111C219.289 172.35 214.137 175.387 215.749 180.688C210.945 179.467 206.631 178.023 201.637 178.343C199.399 178.486 197.161 178.217 194.934 178.531C192.512 178.873 190.232 179.682 187.905 180.393C186.064 180.955 184.03 180.999 182.336 181.934C181.517 182.386 180.505 183.031 179.77 183.592C178.79 184.34 178.567 184.835 177.797 185.82C175.05 189.335 172.393 192.63 170.76 196.912ZM155.736 263.439C155.586 262.831 155.45 262.276 155.278 261.581C156.807 262.522 156.807 262.522 155.736 263.439ZM144.182 244.063C143.994 244.324 143.202 244.407 142.972 244.182C142.686 243.903 143.438 242.815 143.559 242.584C143.857 242.813 144.544 243.562 144.182 244.063ZM140.909 237.012C141.111 236.269 141.314 235.526 141.517 234.783C141.765 235.472 142.886 236.233 142.91 236.889C142.926 237.324 141.13 237.108 140.909 237.012ZM141.559 238.031C143.313 239.185 143.496 240.547 143.549 242.539C141.449 241.844 141.751 239.813 141.559 238.031ZM172.065 159.417C171.888 159.896 171.137 161.388 170.586 160.345C170.41 160.01 171.699 159.554 172.065 159.417ZM171.562 157.79C171.995 157.4 172.869 157.886 173.36 157.57C173.703 157.348 173.59 157.124 173.751 156.993C173.783 156.967 174.251 156.021 174.442 155.807C174.78 155.429 175.518 155.194 175.929 154.854C177.078 153.902 177.727 152.651 178.449 151.378C179.312 149.858 179.587 149.682 180.977 148.986C181.936 148.506 182.68 147.919 183.46 147.104C184.359 146.165 184.293 145.492 185.032 144.466C185.396 143.959 185.921 143.897 186.346 143.488C186.855 142.999 187.114 142.316 187.585 141.822C187.788 141.609 188.442 141.609 188.565 141.427C188.722 141.195 188.844 140.271 188.991 140.1C189.272 140.48 189.554 140.859 189.835 141.239C190.943 139.291 191.752 137.681 193.606 136.384C195.553 135.022 197.234 133.03 199.246 131.811C199.698 131.537 200.62 131.422 200.965 131.018C201.549 130.335 201.043 129.727 201.469 129.147C201.953 128.489 202.89 129.021 203.504 128.738C204.282 128.379 204.505 127.331 205.506 127.446C202.213 131.34 202.254 137.399 202.079 142.262C202.003 144.358 203.324 145.414 201.374 146.952C199.716 148.26 197.378 147.872 195.417 148.733C192.955 149.814 190.322 150.389 187.81 151.332C185.211 152.306 183.122 154.012 180.621 155.141C178.416 156.136 176.911 157.551 174.894 158.779C174.144 159.236 172.982 159.899 172.088 159.353C171.528 159.011 170.831 158.449 171.562 157.79ZM208.757 125.141C208.9 124.587 211.711 123.134 212.403 122.659C213.441 121.946 214.977 120.205 216.136 120.897C216.537 119.29 218.103 117.502 219.487 117.161C221.022 116.783 223.656 115.467 225.167 114.319C225.608 113.983 225.753 113.493 226.272 113.178C227.176 112.63 228.073 112.929 228.944 112.182C229.077 112.068 230.282 110.08 230.329 110.099C230.391 110.313 230.447 110.528 230.496 110.745C231.41 110.238 232.225 109.835 232.794 109.189C232.924 109.042 232.086 108.661 232.35 108.371C232.674 108.015 233.397 108.413 233.724 108.075C232.706 113.124 233.464 119.623 238.589 122.183C232.494 122.841 226.541 121.01 220.37 122.135C217.417 122.674 214.414 123.557 211.727 124.915C210.081 125.747 207.976 128.727 206.338 127.281C206.988 126.414 207.98 125.876 208.757 125.141ZM238.332 110.615C240.612 107.828 244.069 106.726 247.551 107.724C251.627 108.892 249.908 111.739 249.292 114.9C248.116 113.176 245.568 111.466 243.398 111.414C240.322 111.341 241.484 113.903 243.332 114.821C245.011 115.655 247.891 115.887 249.094 117.403C250.264 118.879 249.815 121.292 250.004 123.032C249.094 122.897 248.185 122.762 247.274 122.627C248.038 118.566 244.678 118.369 241.545 117.224C238.378 116.068 235.739 113.786 238.332 110.615ZM248.542 100.614V104.383C247.275 103.661 246.007 102.939 244.739 102.217C246.007 101.682 247.275 101.148 248.542 100.614ZM258.731 130.73C262.963 131.877 267.166 133.09 271.235 134.671C272.712 135.245 274.331 135.449 275.779 136.097C277.157 136.714 277.364 136.65 276.874 137.858C275.5 141.241 272.246 140.656 269.395 140.139C264.932 139.329 260.561 138.205 256.154 137.148C251.847 136.116 247.448 135.439 243.205 134.145C238.852 132.818 234.609 131.561 230.13 130.684C228.824 130.429 218.485 129.481 218.563 128.401C225.075 127.555 231.778 128.388 238.319 128.476C245.116 128.568 252.138 128.944 258.731 130.73ZM252.986 117.643C253.067 115.317 253.099 112.983 253.388 110.671C255.325 113.06 257.074 113.776 259.515 111.536C261.853 109.392 262.375 108.274 265.339 110.29C267.908 112.038 270.339 111.957 273.068 110.427C274.733 109.494 277.407 105.68 279.157 106.465C279.991 106.839 280.602 108.348 281.444 108.903C282.5 109.598 284.124 110.08 285.355 110.35C288.263 110.987 289.995 109.118 291.82 107.119C294.467 104.22 294.389 105.903 296.843 107.913C299.58 110.156 301.868 109.06 304.346 107.147C305.856 111.567 306.421 116.395 306.848 121.03C306.991 122.595 307.529 124.817 306.123 125.923C305.131 126.704 303.028 126.734 301.833 127.166C297.567 128.707 293.467 130.894 289.899 133.694C288.509 134.785 287.297 136.121 285.397 135.873C283.587 135.636 281.827 134.121 280.371 133.121C278.791 132.037 277.192 130.805 275.345 130.2C274.263 129.846 272.531 129.974 271.585 129.325C269.825 128.118 271.896 124.951 271.458 122.826C271.126 121.212 270.197 117.847 267.973 118.793C264.663 120.201 266.589 125.694 268.409 127.409C264.686 126.749 260.564 125.784 256.974 124.558C254.2 123.61 252.886 120.481 252.986 117.643ZM315.426 128.974C323.068 126.829 330.22 125.383 338.173 124.992C341.694 124.819 345.102 124.928 348.584 124.96C350.588 124.978 352.115 123.363 350.514 121.505C348.298 118.932 341.538 119.911 338.543 119.796C330.516 119.486 323.155 120.398 315.552 123.043C316.356 121.562 318.287 121.37 319.611 120.605C321.235 119.665 322.339 118.118 323.033 116.4C324.838 111.933 323.021 107.723 321.133 103.642C324.842 104.639 328.679 106.823 332.407 107.377C333.189 107.494 333.691 107.419 334.382 107.703C334.807 107.878 334.941 108.481 335.467 108.613C335.721 108.676 336.332 108.103 336.619 108.184C337.755 108.505 336.856 108.59 337.575 109.054C338.144 109.423 338.098 109.897 339.144 109.723C339.607 109.647 340.11 108.93 340.354 108.911C340.665 108.885 340.593 108.507 341.069 108.617C341.935 108.819 341.859 109.934 342.147 110.482C342.456 111.067 342.018 111.843 342.952 112.163C343.651 112.402 343.826 111.665 344.42 111.718C344.781 111.75 345.529 112.27 345.848 112.586C346.874 113.605 348.279 114.73 349.659 115.394C349.524 115.257 350.31 114.929 350.122 114.852C349.995 114.801 350.821 115 350.808 114.997C351.605 115.178 352.026 116.4 352.428 116.846C353.169 117.663 354.319 118.526 355.357 118.887C357.152 119.511 357.097 118.765 357.752 120.896C359.028 118.891 359.517 122.249 361.1 122.618C361.919 122.81 361.823 122.459 362.568 122.887C363.079 123.181 363.42 124.081 363.805 124.516C363.971 123.889 364.136 123.262 364.301 122.637C365.441 124.794 367.9 128.216 370.598 127.597C370.598 128.186 370.355 128.89 370.811 129.393C371.13 129.744 371.646 129.345 371.895 129.549C372.113 129.728 372.633 130.437 372.8 130.554C373.128 130.784 373.724 130.952 374.009 131.181C374.261 131.383 374.385 132.348 374.664 132.696C375.187 133.351 376.093 133.481 376.521 134.267C376.619 133.492 376.717 132.717 376.814 131.942C377.664 132.598 377.737 133.108 377.946 134.068C378.243 135.435 377.848 135.114 378.792 135.691C379.719 136.259 380.202 136.195 381.052 137.18C381.885 138.145 381.893 138.739 383.095 137.734C383.319 138.477 383.391 139.44 383.987 140.01C384.438 140.44 386.305 140.459 386.483 141.476C382.976 138.518 385.284 143.01 386.485 141.483C386.739 143.118 387.936 143.646 389.302 144.81C390.577 145.894 390.786 145.816 391.221 147.638C391.211 147.598 391.862 148.001 391.909 148.081C390.667 148.259 392.592 149.646 392.918 149.899C393.155 150.084 393.465 149.642 393.859 149.942C394.31 150.285 394.678 151.064 395.045 151.534C396.04 152.808 396.777 153.902 397.825 154.938C398.955 156.056 399.505 157.469 400.59 158.775C401.794 160.226 402.446 161.894 403.452 163.47C404.41 164.968 405.681 166.17 406.79 167.542C408.556 169.725 409.157 174.533 412.451 174.659C412.258 174.859 412.527 176.349 412.558 176.624C412.714 177.977 412.611 179.279 413.411 180.504C413.595 179.106 414.327 179.645 414.963 180.379C416.02 181.602 415.092 181.294 415.147 182.532C415.215 184.033 415.386 182.872 415.958 184.183C416.406 185.209 416.651 185.875 416.892 187.014C415.031 187.161 414.179 185.642 413.491 184.17C413.204 183.554 413.104 182.542 412.596 182.06C412.054 181.548 411.31 181.508 410.753 180.936C409.685 179.838 409.222 178.125 407.963 177.056C406.541 175.848 406.225 175.278 405.05 173.834C403.749 172.237 401.953 171.115 400.588 169.571C399.222 168.023 399.333 168.868 397.616 168.308C395.79 167.711 392.838 161.975 390.539 164.184C390.629 162.739 388.464 161.38 387.369 160.856C386.896 160.63 386.345 160.835 385.871 160.495C385.358 160.127 385.321 159.418 384.803 158.976C384.803 158.976 384.009 159.169 383.848 159.087C383.519 158.921 383.517 158.334 383.227 158.14C382.426 157.605 381.47 157.044 380.62 156.588C378.552 155.479 376.725 154.115 374.73 152.78C373.021 151.637 370.952 149.573 368.977 148.97C367.251 148.444 366.166 148.712 364.753 147.658C363.984 147.084 364.21 146.891 362.973 146.534C361.796 146.194 361.135 146.369 360.511 145.121C359.419 142.937 360.108 138.675 359.897 136.227C359.673 133.628 359.407 130.965 358.729 128.438C357.927 125.451 356.868 123.89 353.662 124.593C347.311 125.988 341.037 127.316 334.657 128.541C321.944 130.981 309.449 134.964 297.016 138.5C296.069 138.77 290.785 139.979 291.864 137.249C292.362 135.989 295.706 135.52 296.825 135.124C302.971 132.95 309.144 130.736 315.426 128.974ZM313.29 123.416C312.361 123.77 311.433 124.123 310.504 124.478V121.897C311.433 122.403 312.361 122.909 313.29 123.416ZM309.431 109.772C310.238 110.431 311.878 108.845 312.564 108.524C313.736 107.975 315.228 107.504 316.537 107.617C318.951 107.825 320.717 110.201 320.275 112.61C319.526 116.685 313.717 118.612 310.514 120.205C310.411 118.761 309.943 117.024 310.956 115.775C311.836 114.691 313.542 114.77 314.354 113.616C316.397 110.716 310.86 110.454 309.623 112.759C309.135 111.286 308.647 109.812 308.159 108.339C309.337 108.144 308.819 109.273 309.431 109.772ZM315.145 101.796C313.992 102.54 312.839 103.285 311.687 104.03C311.116 101.452 313.063 101.112 315.145 101.796ZM420.178 191.528C418.668 192.248 418.291 190.528 417.205 190.454C418.487 189.666 418.487 189.666 420.178 191.528ZM426.317 229.071C426.505 231.543 426.358 234.043 426.687 236.504C426.938 238.376 427.697 240.119 427.778 242.013C427.955 246.16 426.554 250.384 423.724 253.424C421.047 256.3 417.216 258.775 413.602 259.985C411.974 260.529 410.274 261.736 408.693 262.182C406.943 262.676 405.281 261.601 403.838 263.529C402.875 255.26 403.578 246.62 403.502 238.299C403.427 229.961 403.516 221.619 402.105 213.37C400.848 206.023 398.37 197.76 393.802 191.749C391.947 189.309 389.662 187.31 387.253 185.439C386.003 184.468 384.753 183.43 383.361 182.663C381.218 181.483 379.393 181.646 377.062 181.31C373.727 180.829 370.627 180.422 367.279 181.361C364.163 182.235 360.731 183.23 357.939 184.748C355.159 186.261 351.93 186.885 349.044 188.24C347.08 189.162 343.001 192.241 340.823 191.687C338.714 191.15 335.592 187.573 334.246 185.97C332.525 183.923 331.101 181.549 329.574 179.346C329.039 178.573 327.946 177.377 327.806 176.384C327.564 174.66 328.255 175.223 329.903 175.416C334.141 175.913 338.126 176.698 342.187 178.031C344.208 178.694 348.16 181.378 350.181 179.77C353.267 177.315 348.578 173.095 346.86 171.678C343.934 169.262 340.532 167.469 337.413 165.323C334.099 163.042 329.718 160.614 327.585 157.102C333.813 158.939 340.034 161.043 346.08 163.412C348.846 164.496 351.58 165.641 354.177 167.082C355.637 167.891 358.585 170.08 360.342 169.031C364.162 166.752 355.389 160.134 354.123 158.781C352.156 156.679 350.229 154.597 348.067 152.69C346.608 151.404 344.317 150.499 343.639 148.601C346.059 149.477 348.017 151.193 350.284 152.358C351.47 152.969 352.553 153.32 353.864 153.507C355.261 153.708 355.428 153.93 356.529 154.485C357.386 154.918 358.267 155.497 359.23 155.791C359.916 156.001 361.114 156.037 361.714 156.426C362.02 156.863 362.336 157.293 362.663 157.715C363.029 157.822 363.389 157.946 363.744 158.087C364.276 158.561 364.591 159.214 365.108 159.703C368.863 163.251 373.885 165.791 378.094 168.763C382.076 171.575 386.302 174.12 390.127 177.189C394.528 180.722 399.096 184.518 402.84 188.754C404.956 191.149 406.695 193.863 408.472 196.51C409.759 198.427 411.631 200.017 412.743 201.994C415.168 206.303 417.181 210.961 419.791 215.2C422.452 219.52 425.917 223.813 426.317 229.071ZM390.539 254.074C391.264 251.083 395.356 247.592 397.971 246.273C396.653 249.531 393.141 251.753 390.539 254.074ZM397.286 264.506C395.056 269.131 385.248 269.66 386.579 262.816C387.231 259.463 389.998 257.405 392.373 255.21C393.471 254.196 396.161 250.569 397.861 251.153C397.781 253.761 397.627 256.381 397.633 258.989C397.637 260.731 398.075 262.869 397.286 264.506ZM394.451 211.201C395.356 213.232 396.258 214.924 394.579 216.741C393.822 217.561 391.353 219.355 390.236 218.957C386.651 217.679 393.486 212.115 394.451 211.201ZM372.769 193.129C373.632 193.081 374.47 193.21 375.324 193.157C376.174 193.104 376.263 192.954 377.051 193.061C377.134 193.182 377.217 193.303 377.3 193.424C377.408 194.234 377.834 194.322 378.577 193.688C379.612 193.918 380.285 194.072 381.273 194.63C378.604 196.554 375.355 198.79 372.083 199.436C366.91 200.456 368.339 193.372 372.769 193.129ZM293.471 236.388C292.935 237.466 291.392 234.772 291.011 234.27C291.722 234.267 294.014 235.3 293.471 236.388ZM335.033 208.002C339.052 205.659 343.825 203.6 348.141 201.855C348.9 205.51 345.198 210.228 342.918 212.729C341.075 214.751 338.852 216.849 336.353 218.013C333.65 219.271 330.697 218.718 330.828 215.187C330.876 213.897 331.17 211.821 331.696 210.641C332.373 209.121 333.654 208.805 335.033 208.002ZM280.708 141.524C281.306 141.489 287.803 140.65 287.769 141.458C287.667 143.886 281.36 141.979 280.708 141.524ZM234.76 188.417C238.192 184.185 243.732 179.617 243.813 173.702C243.933 164.999 234.268 169.341 229.409 169.703C231.978 167.18 244.889 156.596 237.253 152.836C235.057 151.756 231.938 152.812 229.735 153.377C225.827 154.382 222.193 156.122 218.354 157.332C221.097 154.414 225.837 151.097 225.682 146.677C225.492 141.296 221.073 142.597 217.252 143.386C215.783 143.69 209.223 146.298 207.991 144.527C207.54 143.879 208.27 143.055 208.425 142.477C208.698 141.455 208.613 141.099 208.623 140.055C208.642 137.949 210.042 135.245 208.9 133.286C208.639 133.731 208.415 134.194 208.229 134.676C207.853 133.536 208.106 132.327 207.729 131.187C217.269 133.625 226.974 134.96 236.574 137.041C241.433 138.095 246.007 139.909 250.933 140.726C255.902 141.549 260.784 142.809 265.761 143.594C270.303 144.31 274.654 145.502 279.151 146.417C283.535 147.308 288.032 145.354 292.311 144.365C301.895 142.15 311.476 139.881 321.072 137.731C332.147 135.25 343.667 133.128 354.267 128.99C354.472 134.505 354.914 140.011 355.588 145.488C350.907 143.277 343.96 140.393 339.227 144.35C337.333 145.933 336.75 148.667 337.498 150.993C338.313 153.523 340.809 154.699 342.456 156.604C337.443 155.32 324.514 146.266 322.213 155.418C320.587 161.881 328.516 166.056 332.393 169.694C328.543 168.941 323.387 165.865 321.126 170.809C319.173 175.083 321.526 179.734 323.936 183.259C325.243 185.169 326.712 186.967 328.1 188.817C328.834 189.796 329.551 190.789 330.323 191.739C331.097 192.691 332.557 193.689 333.099 194.715C334.191 196.783 331.988 196.909 330.274 197.656C328.135 198.589 326.298 200.156 324.341 201.404C319.861 204.263 315.945 206.918 310.651 207.832C305.2 208.772 299.952 209.754 294.573 211.066C289.211 212.374 284.834 213.63 279.353 211.94C276.854 211.17 274.818 210.485 272.168 210.63C269.384 210.782 267.756 210.638 265.467 208.914C255.617 201.5 244.926 195.416 234.76 188.417ZM217.002 180.974C220.809 179.065 224.641 177.146 228.573 175.506C231.828 174.148 236.771 172.566 240.334 173.161C239.329 175.74 237.496 177.855 235.531 179.754C233.792 181.434 231.62 183.968 229.516 185.14C227.605 186.204 225.382 184.519 223.498 183.813C221.428 183.038 218.579 182.676 217.002 180.974ZM217.959 190.604C219.856 189.816 223.933 192.46 225.658 193.147C229.049 194.498 232.459 195.91 235.447 198.042C231.798 202.256 227.666 206.109 222.755 208.816C219.525 210.597 214.08 212.64 211.032 209.406C207.204 205.342 211.806 197.062 214.517 193.58C214.606 194.176 214.697 194.771 214.787 195.367C215.652 193.983 216.312 191.288 217.959 190.604ZM287.602 226.673C285.236 227.171 284.431 226.722 282.869 224.908C281.813 223.682 280.775 222.409 279.584 221.306C278.369 220.181 275.367 217.469 279.192 219.03C282.677 220.454 285.663 221.166 289.498 220.608C293.883 219.971 297.971 218.118 302.294 217.18C299.924 219.252 297.571 221.346 295.196 223.413C292.688 225.596 290.79 226.002 287.602 226.673ZM288.143 243.343C282.957 247.244 272.516 246.822 276.03 238.239C276.564 236.935 277.311 235.709 278.175 234.598C278.463 234.227 278.976 233.459 279.386 233.21C280.534 232.515 280.216 232.431 281.318 233.59C282.27 234.59 289.706 242.761 288.143 243.343ZM286.606 228.43C287.081 228.276 289.083 227.116 289.539 227.757C290 228.407 286.076 230.655 286.606 228.43ZM324.363 287.921C323.197 290.709 313.864 294.746 315.603 289.125C316.373 286.635 317.099 284.75 320.004 284.56C321.681 284.452 325.39 285.465 324.363 287.921ZM341.104 250.13C342.641 247.894 347.714 244.871 349.881 248.205C350.924 249.811 348.392 250.634 346.86 250.221C346.038 249.999 345.365 249.508 344.471 249.471C343.321 249.424 342.198 250.325 341.104 250.13ZM345.177 252.349C344.133 253.406 337.832 258.705 336.811 257.888C338.869 254.948 341.231 251.665 345.177 252.349ZM334.887 305.971C332.699 306.095 333.791 302.799 334.003 301.482C334.532 302.4 337.318 305.833 334.887 305.971ZM340.446 300.065C339.738 298.806 337.831 296.932 338.262 295.313C338.592 294.075 341.569 292.41 342.815 293.12C344.471 294.064 342.071 300.274 340.446 300.065ZM392.363 286.865C391.427 290.088 390.457 289.257 387.522 289.881C384.578 290.507 382.542 293.006 379.951 294.346C380.851 292.444 381.409 290.126 382.917 288.582C383.265 288.225 385.402 287.522 384.185 286.696C383.12 285.974 381.59 288.316 381.134 288.955C378.889 292.096 377.318 295.933 376.022 299.548C375.384 301.323 374.874 303.132 374.572 304.996C374.303 306.658 374.593 308.396 374.319 310.014C373.877 312.621 370.335 312.634 368.205 313.306C366.277 313.914 364.357 314.574 362.355 314.901C360.62 315.186 358.819 314.668 357.137 315.01C355.316 315.379 354.498 316.459 352.428 316.215C350.741 316.017 349.162 315.241 347.451 315.163C345.851 315.091 344.254 315.644 342.663 315.194C341.057 314.739 341.135 314.563 341.5 312.986C341.728 313.412 341.957 313.838 342.186 314.263C342.826 313.761 343.269 312.232 343.661 311.514C344.269 310.401 344.765 310.017 344.539 308.631C344.207 306.585 342.361 305.13 341.943 303.184C341.506 301.153 343.008 299.493 343.896 297.797C345.11 295.477 345.093 293.756 344.076 291.356C344.843 291.559 345.61 291.761 346.378 291.964C345.326 289.683 341.76 290.607 339.972 291.283C339.074 291.623 337.649 292.957 336.682 292.923C335.353 292.877 334.661 291.131 334.09 290.169C332.437 287.388 330.551 284.64 328.596 282.058C328.058 281.347 327.354 280.891 327.54 280.081C327.698 279.394 329.239 278.42 329.739 277.997C331.614 276.413 334 275.534 335.761 273.867C338.423 271.347 341.492 269.541 344.213 267.07C347.048 264.497 349.969 262.133 352.923 259.701C355.915 257.238 358.507 254.336 361.477 251.847C362.247 253.241 363.738 258.232 365.443 258.619C367.432 259.069 367.372 256.718 367.274 255.303C367.133 253.287 366.013 251.328 365.888 249.404C365.754 247.345 367.735 246.425 369.231 245.235C371.54 243.396 376.652 239.207 373.905 235.759C371.538 232.789 363.84 238.483 361.718 240.195C359.915 241.65 358.522 242.966 356.492 244.114C355.064 244.92 352.669 248.022 350.977 247.736C348.964 247.395 348.178 245.199 345.716 245.271C343.309 245.341 341.265 247.073 339.773 248.812C336.4 252.743 335.241 258.003 332.167 262.1C330.651 264.121 328.686 265.788 327.042 267.7C325.236 269.798 324.853 272.215 323.073 274.268C317.978 267.486 312.428 261.064 307.056 254.504C304.374 251.228 301.746 247.913 299.121 244.591C298.137 243.346 297.028 242.178 296.127 240.871C294.893 239.08 295.115 237.641 294.63 235.644C294.416 234.759 293.41 233.699 293.679 232.853C294.041 231.716 296.584 230.823 297.501 230.359C301.246 228.458 304.643 226.084 308.135 223.763C314.602 219.465 321.143 215.435 328.02 211.764C327.902 213.346 326.872 214.985 327.564 216.571C327.886 215.659 328.396 211.592 329.615 211.417C329.382 211.451 329.574 216.632 329.762 217.372C330.325 219.58 331.958 221.089 334.295 221.074C338.745 221.046 342.733 216.208 345.203 213.003C346.875 210.833 348.482 208.31 349.071 205.594C349.6 203.156 349.018 201.46 351.554 200.222C356.758 197.682 362.003 195.612 367.569 194.265C367.32 196.662 366.624 199.613 368.804 201.337C371.21 203.24 374.359 201.544 376.624 200.285C378.868 199.038 382.329 195.613 384.964 196.608C387.557 197.587 389.361 200.836 390.812 202.994C392.091 204.895 393.483 206.267 392.002 208.387C390.342 210.762 389.262 213.081 387.932 215.662C387.421 216.654 386.933 217.301 387.294 218.317C387.411 218.647 388.744 220.611 389.106 220.892C391.415 222.688 394.533 219.272 396.181 217.975C396.763 223.559 396.893 229.119 397.127 234.72C397.299 238.823 398.888 242.861 395.52 245.861C392.152 248.858 389.341 251.936 387.288 255.996C386.192 258.165 385.209 260.39 384.022 262.514C383.23 263.933 381.559 266.013 382.582 267.683C383.661 266.66 383.982 265.104 384.881 263.949C385.42 266.345 385.962 269.002 388.497 270.017C391.414 271.185 394.313 269.164 396.897 268.039C395.97 274.443 394.164 280.665 392.363 286.865ZM389.381 294.226C387.38 298.502 385.571 303.657 381.875 306.806C381.063 307.497 377.614 310.196 376.302 309.744C375.188 309.36 375.801 307.11 375.995 306.146C376.98 301.253 378.684 298.174 382.654 295.052C384.297 293.76 386.407 292.108 388.526 291.79C390.807 291.447 390.15 292.583 389.381 294.226ZM445.846 395.72C440.655 388.667 433.32 383.185 426.387 377.886C423.247 375.486 419.787 373.686 416.615 371.285C413.028 368.57 409.385 365.952 405.368 363.906C397.75 360.027 389.441 357.323 382.253 352.736C378.747 350.499 374.912 348.338 371.616 345.826C370.169 344.723 368.89 343.312 367.582 342.048C366.366 340.874 363.756 339.17 363.273 337.451C365.296 337.121 366.446 335.159 368.252 334.959C368.846 334.893 372.572 335.878 372.063 334.071C373.415 334.037 373.572 334.017 374.705 333.722C375.174 333.599 375.73 333.791 376.205 333.623C376.93 333.367 377.424 332.627 378.157 332.344C378.678 332.143 380.613 332.367 380.906 332.117C381.707 331.433 380.856 331.493 380.378 330.639C381.935 330.6 383.004 331.386 384.564 330.55C385.039 330.295 385.441 329.709 385.901 329.405C386.718 328.866 387.013 329.702 387.572 328.582C388.096 330.127 388.081 329.7 389.343 329.245C390.599 328.793 391.506 328.466 392.937 328.353C396.356 328.082 399.786 328.497 403.189 328.254C404.434 328.165 405.498 327.883 406.734 328.046C407.823 328.189 407.495 328.946 408.401 327.926C408.611 327.689 407.931 327.04 408.257 326.7C408.401 326.549 408.869 326.655 409.047 326.578C410.638 325.884 410.645 326.853 410.927 328.117C411.86 327.898 412.812 327.701 413.622 327.154C413.213 326.789 412.528 326.385 412.923 325.718C414.269 326.228 415.148 325.993 414.476 327.469C415.83 327.916 416.083 327.333 417.299 327.205C418.018 327.13 419.022 327.576 419.621 327.002C420.275 326.376 419.243 325.695 420.445 325.156C420.692 325.281 420.874 325.47 420.994 325.723C421.643 325.919 421.526 326.174 420.643 326.489C423.007 327.713 422.452 326.345 423.444 324.896C423.674 324.563 424.7 323.526 425.168 324.027C425.877 324.786 424.429 325.028 424.74 325.783C425.278 327.092 427.156 325.414 427.732 324.751C428.168 324.25 428.346 323.29 428.816 322.915C429.469 322.395 430.408 323.199 431.226 323.055C434.96 322.401 438.487 317.382 435.674 314.023C434.918 313.12 434.278 313.3 433.377 312.73C432.486 312.167 431.986 311.193 431.272 310.388C429.64 308.552 427.642 307.176 425.361 306.297C420.068 304.257 414.366 302.768 408.809 301.673C406.236 301.166 403.496 300.39 400.861 300.396C399.309 300.399 396.971 301.605 395.52 301.027C392.698 299.904 396.84 294.152 397.524 292.294C399.532 286.835 401.047 281.016 402.04 275.285C402.235 274.164 402.16 272.711 402.564 271.643C403.028 270.414 403.128 270.588 404.121 270.488C405.914 270.307 407.876 271.247 409.744 270.922C411.815 270.562 414.053 270.73 416.143 270.09C417.103 269.796 417.994 269.476 418.626 268.666C418.826 268.411 418.604 268.19 418.73 268.012C418.769 267.956 419.484 267.186 419.507 267.142C419.5 266.743 419.534 266.347 419.611 265.956C420.335 266.557 419.978 267.817 421.199 267.847C421.417 266.503 421.419 266.232 422.302 265.476C422.234 265.534 422.966 264.912 422.873 264.978C422.917 264.739 423.005 264.515 423.136 264.308C423.549 264.109 423.985 264.003 424.443 263.991C425.397 263.011 425.001 262.488 425.001 261.168C425.771 261.568 426.541 261.968 427.311 262.367C427.497 258.457 429.879 256.316 431.462 253.147C432.137 251.797 432.824 250.742 432.985 249.113C433.078 248.174 432.835 247.345 433.224 246.459C433.577 245.656 434.367 245.223 434.697 244.348C435.347 242.625 434.862 240.427 434.898 238.638C434.948 236.158 435.195 233.685 435.276 231.206C435.436 226.339 434.946 221.338 434.217 216.527C433.869 214.226 433.286 211.994 432.828 209.717C432.452 207.846 431.551 206.09 431.229 204.35C431.095 203.626 431.302 202.977 431.083 202.177C430.796 201.125 430.315 200.091 429.957 199.058C429.123 196.646 428.297 194.237 427.358 191.862C425.538 187.259 423.408 182.794 421.384 178.279C419.437 173.938 417.825 169.462 415.303 165.408C412.819 161.415 410.145 157.49 407.408 153.668C404.556 149.688 400.951 146.268 398.186 142.251C392.994 134.708 385.753 128.493 378.176 123.361C362.542 112.771 345.647 102.196 326.9 98.5653C324.075 98.0184 321.213 97.6389 318.334 97.5681C316.547 97.5238 313.587 98.387 311.895 97.7826C310.001 97.1058 310.174 94.9791 309.7 93.3108C309.09 91.1663 307.714 89.7613 306.152 88.2454C304.507 86.6495 303.015 84.7857 300.964 83.7005C298.885 82.6015 296.434 82.1903 294.131 81.8579C292.075 81.5606 289.003 81.8383 287.124 80.9429C285.414 80.1269 286.258 79.2775 287.86 79.9762C287.978 79.27 288.073 78.814 288.526 78.2682C288.753 77.9939 289.827 77.6092 289.853 77.3532C289.883 77.0536 288.982 76.2002 288.853 75.8137C288.576 74.9816 288.734 73.8291 289.063 73.0481C290.678 74.483 291.146 75.1185 292.949 73.7469C293.711 73.1678 293.944 72.9124 294.826 72.6203C295.065 72.5409 295.602 72.7859 295.81 72.6485C296.607 72.124 295.874 72.2476 296.253 71.6277C296.158 71.7841 296.827 70.1365 296.795 70.481C296.876 69.6034 297.136 69.8731 296.606 68.7948C295.568 66.6854 292.924 66.5991 294.271 64.1918C294.801 63.2446 295.268 63.339 295.418 61.9656C295.498 61.2272 295.398 60.3807 295.395 59.6296C295.388 58.0936 295.678 57.0182 294.237 56.2361C292.853 55.4838 291.576 56.3091 291.015 54.4435C290.426 52.4859 291.019 49.9762 288.897 48.6357C287.346 47.6563 285.107 48.4937 283.394 48.0146C281.677 47.535 280.098 45.7793 278.356 47.1273C277.118 48.0854 276.46 50.4409 274.128 49.1671C273.075 48.5926 272.495 46.6637 271.831 45.582C270.773 43.8579 269.925 43.2351 268.298 44.9143C267.294 45.9501 265.178 48.4712 265.049 49.9049C264.907 51.4876 266.289 52.1489 264.554 53.0852C262.828 54.0168 261.86 53.3336 260.46 55.2245C259.07 57.1004 260.146 58.1367 258.536 59.9316C256.524 62.175 255.454 63.1434 255.482 66.1661C255.502 68.2393 253.669 70.0301 254.738 71.9969C255.936 74.2012 259.433 75.1179 261.554 76.015C260.846 77.3222 259.875 78.1601 260.701 79.5058C261.45 80.7244 263.566 80.9774 264.877 80.756C265.759 80.6077 265.791 80.7411 266.485 80.1211C266.94 79.7151 266.316 79.2085 267.253 78.9836C268.25 78.7432 269.842 80.6962 270.489 81.1845C269.043 83.061 265.069 83.4118 262.967 84.363C261.686 84.9432 260.508 85.8013 259.204 86.32C258.021 86.7904 256.58 86.6811 255.507 87.4092C253.654 88.6664 252.883 91.781 251.748 93.6121C250.462 95.6847 249.215 96.6474 246.749 97.0776C243.672 97.6141 241.193 97.8298 238.324 99.1692C234.819 100.805 231.365 102.532 227.923 104.295C222.371 107.139 217.214 110.058 212.059 113.497C206.666 117.096 201.42 120.853 196.216 124.613C191.069 128.332 186.748 132.908 182.277 137.406C178.663 141.041 175.491 144.966 171.891 148.6C167.64 152.892 164.514 158.309 160.573 162.862C158.417 165.352 156.354 167.802 155.001 170.736C153.905 173.114 151.998 175.448 150.725 177.943C149.099 181.134 147.56 184.273 145.733 187.358C144.984 188.624 144.094 189.71 143.303 190.919C142.29 192.466 142.35 193.961 142.077 195.745C141.793 195.309 141.509 194.874 141.224 194.439C140.708 195.565 140.084 196.673 139.638 197.826C139.352 198.561 139.397 199.606 139.111 200.249C138.752 201.057 138.314 200.95 137.866 201.623C137.387 202.342 137.233 203.309 136.728 204.081C134.546 207.416 133.707 211.649 132.586 215.455C131.081 220.561 131.319 226.43 131.401 231.694C131.487 237.256 131.792 242.817 132.628 248.319C133.386 253.302 135.006 258.082 137.543 262.451C139.753 266.258 142.801 268.477 146.705 270.427C148.498 271.323 150.162 271.046 152.044 271.189C154.105 271.346 155.511 271.905 157.692 271.413C158.738 271.176 159.233 270.415 160.065 270.161C160.579 270.004 160.856 270.261 161.35 270.201C162.057 270.115 163.526 269.769 164.293 269.853C166.677 270.113 166.277 273.715 166.512 275.555C166.873 278.389 167.137 281.253 167.624 284.068C168.648 289.99 170.859 295.523 172.165 301.343C166.11 302.081 160.916 303.211 155.24 305.501C149.546 307.799 143.789 308.578 137.797 309.721C132.191 310.789 126.799 312.786 122.312 316.403C120.209 318.098 118.024 320.081 119.568 322.872C120.556 324.657 122.336 325.111 123.873 326.148C124.184 325.756 123.285 324.923 123.121 324.693C124.413 324.958 124.373 325.561 125.317 326.085C126.141 326.544 126.816 326.527 127.719 326.851C129.923 327.643 131.006 329.617 133.184 330.171C133.869 330.345 134.766 330.762 135.467 330.881C136.309 331.023 136.939 330.655 137.792 330.811C138.252 331.114 138.75 331.331 139.286 331.46C139.636 331.298 139.983 331.126 140.325 330.945C141.551 331.072 142.308 331.842 143.304 332.476C143.37 331.678 143.274 330.849 144.03 330.329C144.325 331.105 143.848 331.596 144.653 332.129C145.673 332.806 147.013 331.961 147.926 331.534C148.184 334.112 154.157 333.96 156.05 333.923C158.672 333.872 161.291 332.833 163.936 333.413C165.285 333.708 166.726 334.017 168.069 334.401C169.686 334.863 171.642 335.276 173.234 335.859C173.867 336.091 174.642 336.833 175.316 336.783C175.853 336.743 175.996 335.952 176.621 335.974C177.327 336 177.565 336.787 178.177 337.024C179.092 337.378 179.934 336.705 180.804 337.045C181.117 337.167 181.54 337.69 181.94 337.861C182.548 338.12 183.75 338.123 184.427 338.248C185.385 338.426 186.244 338.306 187.065 338.365C187.727 338.413 187.713 338.858 188.029 338.887C188.393 338.919 189.026 337.67 189.514 337.487C190.225 337.221 191.516 337.856 192.241 337.968C186.987 345.085 180.652 351.376 173.785 356.884C166.378 362.827 158.793 368.761 150.85 373.973C143.638 378.706 136.656 382.798 131.065 389.479C126.35 395.112 118.845 401.139 120.002 409.303C121.158 417.461 130.021 420.781 137.123 422.338C146.055 424.297 155.25 423.508 164.207 424.61C168.026 425.079 172.27 424.829 176.115 424.428C180.656 423.956 184.548 420.994 188.452 418.852C195.474 415 201.478 409.845 208.395 405.873C217.055 400.898 225.624 395.628 235.119 392.296C239.536 390.746 244.083 388.977 247.646 385.79C248.176 385.315 248.571 384.599 249.171 384.208C250.189 383.544 250.462 384.217 251.053 384.016C251.508 383.861 251.948 383.37 252.342 383.223C253.338 382.85 253.782 383.004 254.898 383.004C253.941 382.452 253.064 381.03 254.058 379.871C255.759 377.886 256.052 381.058 256.692 381.793C257.233 381.097 257.026 380.478 256.887 379.687C257.345 379.989 257.803 380.291 258.261 380.594C257.946 379.063 258.246 377.654 259.057 376.32C259.805 375.091 259.99 375.264 260.196 373.561C262.52 375.681 262.974 370.535 263.183 368.659C263.386 366.84 263.186 365.534 264.383 363.944C265.668 362.236 267.622 361.156 269.253 359.83C271.83 357.733 274.665 355.085 278.229 357.096C281.042 358.683 282.573 362.575 285.213 364.575C286.813 365.788 288.503 365.91 289.524 367.792C290.349 369.312 290.617 371.132 291.396 372.694C293.283 376.478 296 380.809 299.099 383.712C301.983 386.415 305.687 386.401 309.062 388.077C312.404 389.736 315.876 391.534 319.414 392.737C323.277 394.05 327.444 394.608 331.205 396.2C333.14 397.019 334.87 398.251 336.822 399.035C338.927 399.88 341.145 400.476 343.278 401.25C351.729 404.318 360 408.08 368.879 409.78C372.817 410.534 376.463 412.583 380.429 413.015C382.131 413.2 383.519 413.434 385.184 413.86C387.796 414.527 387.243 414.881 388.205 417.058C389.788 420.642 393.654 418.519 396.634 418.609C401.404 418.753 406.102 417.982 410.864 417.945C419.193 417.882 427.213 416.944 435.27 414.211C443.359 411.467 452.568 404.855 445.846 395.72Z" fill="black"/>
<path fill-rule="evenodd" clip-rule="evenodd" d="M349.57 115.742C349.684 115.856 349.951 115.925 349.57 115.742V115.742Z" fill="black"/>
<path fill-rule="evenodd" clip-rule="evenodd" d="M202.859 268.365C204.668 266.533 212.365 266.903 212.947 270.18C213.595 273.839 206.718 279.364 204.201 280.913C200.962 282.907 197.009 283.28 197.583 278.275C198.017 274.494 200.283 270.974 202.859 268.365ZM209.215 264.593C209.45 265.607 207.72 265.262 207.244 265.022C207.019 264.561 208.981 263.576 209.215 264.593ZM195.943 271.302C197.478 271.44 199.237 268.978 200.395 268.14C200.907 268.931 197.531 273.277 197.16 274.269C196.232 276.747 195.716 279.878 196.981 282.35C200.676 289.573 210.134 279.258 212.499 275.655C214.154 273.136 215.3 270.011 212.962 267.541C212.13 266.662 210.755 266.418 209.982 265.582C208.964 264.482 209.765 263.063 207.719 263.303C206.307 263.468 204.612 264.741 203.239 265.202C201.585 265.757 200.098 266.332 198.654 267.361C198.328 267.593 194.046 271.132 195.943 271.302Z" fill="black"/>
<path fill-rule="evenodd" clip-rule="evenodd" d="M304.441 273.726C303.476 278.689 298.556 283.78 293.378 283.978C288.222 284.174 286.553 278.775 287.463 274.472C288.239 270.802 291.413 264.426 295.941 265.129C299.501 265.68 305.268 269.472 304.441 273.726ZM301.158 265.432C297.889 262.904 293.372 261.734 289.583 263.74C288.34 264.397 283.381 267.298 284.89 269.262C286.925 267.686 288.682 265.499 291.326 264.975C290.881 267.023 288.342 268.866 287.447 270.861C286.401 273.191 285.829 275.859 286 278.42C286.305 282.978 289.36 286.52 294.089 285.893C298.419 285.319 302.204 282.002 304.27 278.274C307.028 273.295 305.474 268.769 301.158 265.432Z" fill="black"/>
<path fill-rule="evenodd" clip-rule="evenodd" d="M270.799 285.007C268.471 288.452 264.922 291.692 260.818 292.756C255.506 294.133 256.998 289.745 258.586 286.596C259.99 283.812 262.398 279.023 266.065 279.049C267.309 279.057 269.628 279.659 270.718 280.324C272.868 281.635 272.024 283.195 270.799 285.007ZM265.841 277.437C266.676 276.507 270.375 272.521 270.87 275.628C271.933 274.397 271.095 273.376 269.735 273.246C268.095 273.09 266.301 274.915 265.117 275.822C262.681 277.688 260.806 279.599 259.191 282.216C257.411 285.1 252.872 291.618 256.844 294.48C261.138 297.574 267.387 291.861 270.076 288.914C271.795 287.03 274.072 284.262 273.418 281.498C272.616 278.104 268.665 277.747 265.841 277.437Z" fill="black"/>
<path fill-rule="evenodd" clip-rule="evenodd" d="M247.521 221.926C245.118 224.666 240.237 228.658 236.216 228.188C232.548 227.759 233.98 223.644 235.278 221.653C237.228 218.661 239.84 215.851 243.615 215.687C245.244 215.617 247.356 215.65 248.619 216.883C250.342 218.567 248.79 220.48 247.521 221.926ZM247.265 214.315C244.451 213.343 243.345 212.973 240.61 214.518C238.413 215.758 236.465 217.512 234.958 219.503C232.702 222.484 230.427 229.188 236.219 230.026C242.573 230.947 257.687 217.916 247.265 214.315Z" fill="black"/>
<path fill-rule="evenodd" clip-rule="evenodd" d="M255.925 231.42C254.097 233.286 251.816 234.808 249.211 235.328C250.313 232.871 252.773 227.503 255.69 226.755C257.034 226.41 258.566 226.862 258.455 228.392C258.376 229.498 256.646 230.683 255.925 231.42ZM258.278 224.925C256.765 224.167 257.242 223.649 255.481 224.244C254.093 224.712 252.343 225.525 251.188 226.462C250.557 226.973 248.595 228.784 248.835 229.706C249.27 231.382 250.734 228.814 251.119 228.321C251.778 228.858 248.406 233.681 248.205 234.475C247.458 237.431 249.779 237.743 252.054 236.776C255.122 235.473 264.208 227.895 258.278 224.925Z" fill="black"/>
<path fill-rule="evenodd" clip-rule="evenodd" d="M303.263 304.463C303.49 302.504 303.812 300.432 305.611 299.332C307.233 298.34 308.912 298.483 309.152 300.518C309.375 302.407 307.523 305.762 306.025 306.793C303.939 308.228 303.537 306.439 303.263 304.463ZM305.944 308.922C310.226 306.418 312.926 294.931 305.031 298.151C300.545 299.98 302.195 311.115 305.944 308.922Z" fill="black"/>
<path fill-rule="evenodd" clip-rule="evenodd" d="M269.366 261.29C270.041 259.906 270.814 259.448 272.183 258.842C271.27 259.704 270.337 260.499 269.366 261.29ZM270.354 257.881C269.384 258.853 267.161 260.336 267.472 262.007C267.757 263.532 268.922 263.445 269.979 262.969C272.196 261.974 273.429 257.613 275.748 257.205C273.176 255.576 272.576 255.651 270.354 257.881Z" fill="black"/>
<path fill-rule="evenodd" clip-rule="evenodd" d="M270.694 171.286C270.818 175.93 270.926 180.573 271.029 185.216C271.065 186.848 270.675 189.174 271.165 190.738C271.381 191.426 273.338 194.411 274.033 194.604C276.462 195.28 275.594 189.193 275.611 187.695C275.67 182.639 275.596 177.577 275.575 172.52C275.564 169.914 276.3 148.065 272.917 148.172C272.334 148.191 270.899 150.689 270.682 151.189C270.003 152.762 270.253 155.094 270.269 156.77C270.315 161.607 270.566 166.45 270.694 171.286Z" fill="black"/>
<path fill-rule="evenodd" clip-rule="evenodd" d="M291.178 184.822C291.368 186.106 291.268 188.247 292.714 188.912C293.972 189.491 294.455 188.802 294.925 187.727C296.007 185.252 295.617 181.468 295.597 178.91C295.557 173.839 294.986 168.789 294.591 163.737C294.417 161.52 294.778 159.294 294.5 156.974C294.379 155.956 294.257 151.861 292.369 152.052C290.662 152.224 290.816 156.516 290.723 157.622C289.949 166.826 289.815 175.633 291.178 184.822Z" fill="black"/>
<path fill-rule="evenodd" clip-rule="evenodd" d="M371.754 290.524C371.03 294.221 359.226 307.094 356.253 299.894C354.49 295.623 358.312 290.972 361.293 288.5C363.138 286.969 365.443 285.468 367.957 285.931C370.092 286.325 372.213 288.176 371.754 290.524ZM365.658 283.893C364.824 284.09 357.855 288.981 357.791 288.917C357.186 288.309 361.582 281.762 362.034 281.189C365.76 276.47 368.234 280.043 370.564 283.752C370.068 281.537 368.703 278.321 366.421 277.383C363.54 276.201 361.293 279.12 359.907 281.219C357.948 284.186 356.868 287.407 355.78 290.755C355.261 292.351 354.669 293.799 353.79 295.238C352.922 296.659 351.405 298.225 351.629 300.022C352.862 299.337 353.517 297.995 354.294 296.89C355.161 297.241 354.863 300.004 355.039 300.707C355.482 302.474 356.69 303.857 358.558 304.161C362.041 304.727 365.8 301.507 368.128 299.32C370.581 297.016 373.222 293.857 373.201 290.311C373.179 286.605 369.532 282.977 365.658 283.893Z" fill="black"/>
<path fill-rule="evenodd" clip-rule="evenodd" d="M375.099 224.491C373.123 227.513 369.656 231.136 365.988 231.838C363.295 232.353 361.519 230.358 362.601 227.666C363.514 225.391 366.627 223.954 368.668 222.953C370.286 222.158 377.833 220.309 375.099 224.491ZM373.645 219.548C369.598 219.395 366.334 222.32 363.316 224.653C363.997 221.973 365.539 219.056 367.71 217.311C370.664 214.936 373.465 216.41 376.575 217.598C375.808 215.178 372.363 214.308 370.169 214.649C367.395 215.082 365.4 217.449 363.997 219.739C362.324 222.47 361.751 225.69 359.782 228.252C358.88 229.425 353.296 233.813 354.56 235.607C356.646 233.394 358.732 231.181 360.818 228.968C361.359 231.584 361.955 234.562 365.296 234.307C367.964 234.104 371.007 231.837 372.959 230.105C375.478 227.867 380.437 219.805 373.645 219.548Z" fill="black"/>
<path fill-rule="evenodd" clip-rule="evenodd" d="M316.952 245.352C315.237 246.14 311.464 247.211 310.505 244.844C309.173 241.556 313.458 235.79 315.498 233.599C316.752 232.251 317.603 231.554 319.352 232.426C320.748 233.123 322.8 235.102 323.336 236.624C324.486 239.89 319.634 244.12 316.952 245.352ZM320.885 229.563C322.281 229.877 322.453 231.649 320.707 230.969C319.399 230.459 319.095 229.159 320.885 229.563ZM322.638 232.059C322.117 230.469 323.177 227.976 320.61 227.861C319.155 227.797 316.49 229.275 315.22 229.876C313.459 230.708 311.802 231.979 310.883 233.77C310.032 235.428 310.64 235.865 311.938 234.489C312.096 234.597 309.002 242.573 308.975 243.372C308.854 247.025 311.441 249.431 315.074 248.783C318.414 248.188 321.423 245.458 323.261 242.704C324.19 241.309 324.954 239.714 325.024 238.006C325.131 235.386 323.383 234.333 322.638 232.059Z" fill="black"/>
<path fill-rule="evenodd" clip-rule="evenodd" d="M338.656 230.719C337.247 228.007 340.511 223.443 343.434 224.778C349.521 227.558 340.504 234.274 338.656 230.719ZM344.123 227.179C343.47 227.205 339.341 228.799 339.948 229.88C340.782 231.362 343.796 227.775 344.123 227.179Z" fill="black"/>
<path fill-rule="evenodd" clip-rule="evenodd" d="M144.489 222.166C144.325 221.011 141.735 222.688 141.75 223.432C142.178 222.576 144.828 224.573 144.489 222.166Z" fill="black"/>
<path fill-rule="evenodd" clip-rule="evenodd" d="M286.161 134.888C289.459 134.646 285.257 118.017 282.854 119.488C280.248 121.082 283.135 135.11 286.161 134.888Z" fill="black"/>
<path fill-rule="evenodd" clip-rule="evenodd" d="M292.32 127.123C295.41 127.566 294.919 120.475 293.257 119.206C290.189 116.863 288.569 126.586 292.32 127.123Z" fill="black"/>
</svg>
